<svg xmlns="http://www.w3.org/2000/svg" viewBox="0 0 320 1440"><g xmlns="http://www.w3.org/2000/svg" transform="matrix(0 1 -1 0 320 -0)"><path fill="#ffffffff" fill-opacity="1" d="M0,32L9.2,37.3C18.5,43,37,53,55,101.3C73.8,149,92,235,111,256C129.2,277,148,235,166,218.7C184.6,203,203,213,222,202.7C240,192,258,160,277,144C295.4,128,314,128,332,117.3C350.8,107,369,85,388,74.7C406.2,64,425,64,443,96C461.5,128,480,192,498,192C516.9,192,535,128,554,138.7C572.3,149,591,235,609,250.7C627.7,267,646,213,665,165.3C683.1,117,702,75,720,74.7C738.5,75,757,117,775,144C793.8,171,812,181,831,192C849.2,203,868,213,886,224C904.6,235,923,245,942,256C960,267,978,277,997,272C1015.4,267,1034,245,1052,208C1070.8,171,1089,117,1108,117.3C1126.2,117,1145,171,1163,181.3C1181.5,192,1200,160,1218,149.3C1236.9,139,1255,149,1274,138.7C1292.3,128,1311,96,1329,96C1347.7,96,1366,128,1385,128C1403.1,128,1422,96,1431,80L1440,64L1440,320L1430.8,320C1421.5,320,1403,320,1385,320C1366.2,320,1348,320,1329,320C1310.8,320,1292,320,1274,320C1255.4,320,1237,320,1218,320C1200,320,1182,320,1163,320C1144.6,320,1126,320,1108,320C1089.2,320,1071,320,1052,320C1033.8,320,1015,320,997,320C978.5,320,960,320,942,320C923.1,320,905,320,886,320C867.7,320,849,320,831,320C812.3,320,794,320,775,320C756.9,320,738,320,720,320C701.5,320,683,320,665,320C646.2,320,628,320,609,320C590.8,320,572,320,554,320C535.4,320,517,320,498,320C480,320,462,320,443,320C424.6,320,406,320,388,320C369.2,320,351,320,332,320C313.8,320,295,320,277,320C258.5,320,240,320,222,320C203.1,320,185,320,166,320C147.7,320,129,320,111,320C92.3,320,74,320,55,320C36.9,320,18,320,9,320L0,320Z"></path></g></svg>